<?xml version="1.0" encoding="UTF-8" standalone="no"?>
<svg width="60px" height="56px" viewBox="0 0 60 56" version="1.1" xmlns="http://www.w3.org/2000/svg" xmlns:xlink="http://www.w3.org/1999/xlink" xmlns:sketch="http://www.bohemiancoding.com/sketch/ns">
    <title>Artboard 1</title>
    <description>Created with Sketch (http://www.bohemiancoding.com/sketch)</description>
    <defs></defs>
    <g id="FontCardona" fill="#D8D8D8" fill-rule="evenodd">
        <g id="FontCardona Tempate">
            <g id="coderwall">
                <path d="M45,32 C42.7908609,32 41,30.2091391 41,28 C41,25.7908609 42.7908609,24 45,24 C47.2091391,24 49,25.7908609 49,28 C49,30.2091391 47.2091391,32 45,32 Z M45,18 C42.7908609,18 41,16.2091391 41,14 C41,11.7908609 42.7908609,10 45,10 C47.2091391,10 49,11.7908609 49,14 C49,16.2091391 47.2091391,18 45,18 Z M45,46 C42.7908609,46 41,44.2091391 41,42 C41,39.7908609 42.7908609,38 45,38 C47.2091391,38 49,39.7908609 49,42 C49,44.2091391 47.2091391,46 45,46 Z M30,18 C27.7908609,18 26,16.2091391 26,14 C26,11.7908609 27.7908609,10 30,10 C32.2091391,10 34,11.7908609 34,14 C34,16.2091391 32.2091391,18 30,18 Z M30,32 C27.7908609,32 26,30.2091391 26,28 C26,25.7908609 27.7908609,24 30,24 C32.2091391,24 34,25.7908609 34,28 C34,30.2091391 32.2091391,32 30,32 Z M15,18 C12.7908609,18 11,16.2091391 11,14 C11,11.7908609 12.7908609,10 15,10 C17.2091391,10 19,11.7908609 19,14 C19,16.2091391 17.2091391,18 15,18 Z M15,18" id="icon-coderwall" fill="#000000"></path>
            </g>
            <g id="dribbble"></g>
        </g>
    </g>
</svg>