<?xml version="1.0" encoding="UTF-8" standalone="no"?>
<svg width="60px" height="56px" viewBox="0 0 60 56" version="1.1" xmlns="http://www.w3.org/2000/svg" xmlns:xlink="http://www.w3.org/1999/xlink" xmlns:sketch="http://www.bohemiancoding.com/sketch/ns">
    <title>Artboard 1</title>
    <description>Created with Sketch (http://www.bohemiancoding.com/sketch)</description>
    <defs></defs>
    <g id="FontCardona" fill="#D8D8D8" fill-rule="evenodd">
        <g id="FontCardona Tempate">
            <g id="coderwall">
                <path d="M30,32 C32.2091391,32 34,30.2091391 34,28 C34,25.7908609 32.2091391,24 30,24 C27.7908609,24 26,25.7908609 26,28 C26,30.2091391 27.7908609,32 30,32 Z M6.00490831,0 L53.9950917,0 C56.200205,0 58,1.79305852 58,4.00490831 L58,51.9950917 C58,54.200205 56.2069415,56 53.9950917,56 L6.00490831,56 C3.79979503,56 2,54.2069415 2,51.9950917 L2,4.00490831 C2,1.79979503 3.79305852,0 6.00490831,0 Z M45,18 C47.2091391,18 49,16.2091391 49,14 C49,11.7908609 47.2091391,10 45,10 C42.7908609,10 41,11.7908609 41,14 C41,16.2091391 42.7908609,18 45,18 Z M45,32 C47.2091391,32 49,30.2091391 49,28 C49,25.7908609 47.2091391,24 45,24 C42.7908609,24 41,25.7908609 41,28 C41,30.2091391 42.7908609,32 45,32 Z M30,18 C32.2091391,18 34,16.2091391 34,14 C34,11.7908609 32.2091391,10 30,10 C27.7908609,10 26,11.7908609 26,14 C26,16.2091391 27.7908609,18 30,18 Z M45,46 C47.2091391,46 49,44.2091391 49,42 C49,39.7908609 47.2091391,38 45,38 C42.7908609,38 41,39.7908609 41,42 C41,44.2091391 42.7908609,46 45,46 Z M15,18 C17.2091391,18 19,16.2091391 19,14 C19,11.7908609 17.2091391,10 15,10 C12.7908609,10 11,11.7908609 11,14 C11,16.2091391 12.7908609,18 15,18 Z M15,18" id="icon-coderwall-sign" fill="#000000"></path>
            </g>
            <g id="dribbble"></g>
        </g>
    </g>
</svg>