<?xml version="1.0" encoding="UTF-8" standalone="no"?>
<svg width="60px" height="56px" viewBox="0 0 60 56" version="1.1" xmlns="http://www.w3.org/2000/svg" xmlns:xlink="http://www.w3.org/1999/xlink" xmlns:sketch="http://www.bohemiancoding.com/sketch/ns">
    <title>Artboard 1</title>
    <description>Created with Sketch (http://www.bohemiancoding.com/sketch)</description>
    <defs></defs>
    <g id="FontCardona" fill="#D8D8D8" fill-rule="evenodd">
        <g id="FontCardona Tempate">
            <g id="coderwall"></g>
            <g id="dribbble">
                <path d="M6.00490831,0 C3.79305852,0 2,1.79979503 2,4.00490831 L2,51.9950917 C2,54.2069415 3.79979503,56 6.00490831,56 L53.9950917,56 C56.2069415,56 58,54.200205 58,51.9950917 L58,4.00490831 C58,1.79305852 56.200205,0 53.9950917,0 L6.00490831,0 Z M40.4821777,20 C37.62368,21.9439762 34.2109375,23.2705078 34.2109375,23.2705078 C34.2109375,23.2705078 34.9538417,24.0443355 35.2758789,24.9980469 C35.5910487,25.9314204 35.8681641,26.7392578 35.8681641,26.7392578 L42.5522461,26.7392578 C45.8886719,26.7392578 49.0380859,27.2756348 49.0380859,27.2756348 C49.0380859,27.2756348 48.2776987,22.9779056 47.2287598,20 C46.2453501,17.2081302 44.9462891,15.9697266 44.9462891,15.9697266 C44.9462891,15.9697266 42.9913557,18.2935855 40.4821777,20 Z M30,51 C17.2974501,51 7,40.7025499 7,28 C7,15.2974501 17.2974501,5 30,5 C42.7025499,5 53,15.2974501 53,28 C53,40.7025499 42.7025499,51 30,51 Z M11.8747559,34.6906738 C12.9900493,37.9438412 15.7524414,40.3127441 15.7524414,40.3127441 C15.7524414,40.3127441 18.9324518,35.6201861 23.3193358,32.0495605 C26.8759332,29.1547319 32.3032235,28 32.3032235,28 C32.3032235,28 31.7679781,26.8346833 31.5966805,26.1047363 C31.4568209,25.5087555 31.0170898,24.7299805 31.0170898,24.7299805 C31.0170898,24.7299805 27.6757438,25.6841644 23.9440916,26.1047363 C17.7555778,26.8022063 11.1767578,26.9660645 11.1767578,26.9660645 C11.1767578,26.9660645 10.7022074,31.2705014 11.8747559,34.6906738 Z M35.4331055,37.7895508 C34.4987793,32.7124023 33.1318359,31.0698242 33.1318359,31.0698242 C33.1318359,31.0698242 28.6125859,32.3591374 25.2209473,34.8464355 C21.1731329,37.814948 18.2529297,41.9814453 18.2529297,41.9814453 C18.2529297,41.9814453 23.2604981,46.3872065 28.6254883,46.7421875 C33.9904785,47.097168 35.7104492,45.4587402 35.7104492,45.4587402 C35.7104492,45.4587402 36.3674314,42.8666992 35.4331055,37.7895508 Z M21.9719238,23.4501953 C28.2624512,22.7624512 29.223877,21.0998535 29.223877,21.0998535 C29.223877,21.0998535 27.5747356,18.3505877 25.392334,15.2229004 C23.6511512,12.727541 20.9987793,11.1689453 20.9987793,11.1689453 C20.9987793,11.1689453 17.0098776,12.8837044 14.4912109,16.1469727 C11.9694721,19.4142218 11.029541,23.7548828 11.029541,23.7548828 C11.029541,23.7548828 15.6813966,24.1379398 21.9719238,23.4501953 Z M43.7363281,29.5302734 C40.4677734,29.530274 36.9443359,30.0549316 36.9443359,30.0549316 C36.9443359,30.0549316 38.018099,31.9379039 38.6611328,34.5405273 C39.712191,38.7945933 39.3671875,44.3710938 39.3671875,44.3710938 C39.3671875,44.3710938 43.5674825,41.8374667 46.1108398,38.1416016 C48.1214374,35.2199129 49.1435547,30.9160156 49.1435547,30.9160156 C49.1435547,30.9160156 47.0048828,29.5302734 43.7363281,29.5302734 Z M34.3115234,9.15795898 C38.2944338,10.2122521 41.9628906,13.6848145 41.9628906,13.6848145 C41.9628906,13.6848145 39.7528561,16.1283887 37.5693359,17.6271975 C35.1527583,19.2859815 32.8388672,20.0000003 32.8388672,20.0000003 C32.8388672,20.0000003 30.5877433,16.1391981 29.2548828,14.310283 C26.6370598,10.7181775 24.5517578,9.15795897 24.5517578,9.15795897 C24.5517578,9.15795897 29.7436528,7.94882409 34.3115234,9.15795898 Z M34.3115234,9.15795898" id="icon-dribbble-sign" fill="#000000"></path>
            </g>
        </g>
    </g>
</svg>